# xmcd CD database file generated by Grip 3.3.1
# 
# Track frame offsets:
#       150
#       11410
#       22178
#       33633
#       45752
#       58749
#       69710
#       83536
#       98427
#       109479
#       120608
#       147161
#       158514
#       169881
# 
# Disc length: 2416 seconds
# 
# Revision: 6
# Processed by: cddbd v1.5.2PL0 Copyright (c) Steve Scherf et al.
# Submitted via: Grip 3.3.1
# 
DISCID=ae096e0e
DTITLE=Bob Wills and His Texas Playboys - The Tiffany Transcriptions, Vol.
DTITLE=9
DYEAR=1990
DGENRE=Country
TTITLE0=Texas Playboy Rag
TTITLE1=My Life's Been A Pleasure
TTITLE2=Elmer's Tune
TTITLE3=G.I. Wish
TTITLE4=Milk Cow Blues
TTITLE5=Shame On You
TTITLE6=12th Street Rag
TTITLE7=In The Mood
TTITLE8=You Don't Care What Happens
TTITLE9=St. Louis Blues (Part 1)
TTITLE10=St. Louis Blues (Part 2)
TTITLE11=What Is This Thing Called Love
TTITLE12=Sentimental Journey
TTITLE13=Back Home in Indiana
EXTD=
EXTT0=
EXTT1=
EXTT2=
EXTT3=
EXTT4=
EXTT5=
EXTT6=
EXTT7=
EXTT8=
EXTT9=
EXTT10=
EXTT11=
EXTT12=
EXTT13=
PLAYORDER=
